# AST/ASF file generated using VICON BodyLanguage
# -----------------------------------------------
:version 1.10
:name VICON
:units
  mass 1.0
  length 0.45
  angle deg
:documentation
   .ast/.asf automatically generated from VICON data using
   VICON BodyBuilder and BodyLanguage model FoxedUp or BRILLIANT.MOD
:root
   order TX TY TZ RX RY RZ
   axis XYZ
   position 0 0 0  
   orientation 0 0 0 
:bonedata
  begin
     id 1 
     name lhipjoint
     direction 0.576517 -0.752066 0.319413 
     length 2.45433 
     axis 0 0 0  XYZ
  end
  begin
     id 2 
     name lfemur
     direction 0.34202 -0.939693 0  
     length 7.54459  
     axis 0 0 20  XYZ
    dof rx ry rz
    limits (-160.0 20.0)
           (-70.0 70.0)
           (-60.0 70.0)
  end
  begin
     id 3 
     name ltibia
     direction 0.34202 -0.939693 0   
     length 7.73986   
     axis 0 0 20   XYZ
    dof rx
    limits (-10.0 170.0)
  end
  begin
     id 4 
     name lfoot
     direction 0.090693 -0.249177 0.964202   
     length 2.28437   
     axis -90 7.62852e-016 20   XYZ
    dof rx rz
    limits (-45.0 90.0)
           (-70.0 20.0)
  end
  begin
     id 5 
     name ltoes
     direction 1.5356e-011 -4.21928e-011 1   
     length 1.14243   
     axis -90 7.62852e-016 20   XYZ
    dof rx
    limits (-90.0 20.0)
  end
  begin
     id 6 
     name rhipjoint
     direction -0.573937 -0.753736 0.320122   
     length 2.44889  
     axis 0 0 0  XYZ 
  end
  begin
     id 7 
     name rfemur
     direction -0.34202 -0.939693 0   
     length 7.50166   
     axis 0 0 -20   XYZ
    dof rx ry rz
    limits (-160.0 20.0)
           (-70.0 70.0)
           (-70.0 60.0)
  end
  begin
     id 8 
     name rtibia
     direction -0.34202 -0.939693 0   
     length 7.54266   
     axis 0 0 -20   XYZ
    dof rx
    limits (-10.0 170.0)
 end
 begin
     id 9 
     name rfoot
     direction -0.114017 -0.31326 0.942798   
     length 2.34212  
     axis -90 -7.62852e-016 -20   XYZ
    dof rx rz
    limits (-45.0 90.0)
           (-20.0 70.0)
  end
  begin
     id 10 
     name rtoes
     direction -1.53557e-011 -4.21867e-011 1   
     length 1.16246   
     axis -90 -7.62852e-016 -20   XYZ
    dof rx
    limits (-90.0 20.0)
  end
  begin
     id 11 
     name lowerback
     direction -0.0228371 0.999155 -0.034167   
     length 2.0537   
     axis 0 0 0   XYZ
    dof rx ry rz
    limits (-20.0 45.0)
           (-30.0 30.0)
           (-30.0 30.0)
  end
  begin
     id 12 
     name upperback
     direction 0.0198981 0.999794 0.00389455   
     length 2.05302   
     axis 0 0 0   XYZ
    dof rx ry rz
    limits (-20.0 45.0)
           (-30.0 30.0)
           (-30.0 30.0)
  end
  begin
     id 13 
     name thorax
     direction 0.0304566 0.99935 0.0192987   
     length 2.05315   
     axis 0 0 0   XYZ
    dof rx ry rz
    limits (-20.0 45.0)
           (-30.0 30.0)
           (-30.0 30.0)
  end
  begin
     id 14 
     name lowerneck
     direction -0.0196762 0.99417 0.106017   
     length 1.82056   
     axis 0 0 0   XYZ
    dof rx ry rz
    limits (-20.0 45.0)
           (-30.0 30.0)
           (-30.0 30.0)
  end
  begin
     id 15 
     name upperneck
     direction 0.00517787 0.9802 -0.197944   
     length 1.83835   
     axis 0 0 0   XYZ
    dof rx ry rz
    limits (-20.0 45.0)
           (-30.0 30.0)
           (-30.0 30.0)
  end
  begin
     id 16
     name head
     direction 0.00211419 0.996945 -0.078081  
     length 1.85629  
     axis 0 0 0   XYZ
    dof rx ry rz
    limits (-20.0 45.0)
           (-30.0 30.0)
           (-30.0 30.0)
  end
  begin
     id 17 
     name lclavicle
     direction 0.930001 0.365811 -0.0357824  
     length 3.81961  
     axis 0 0 0   XYZ
    dof ry rz
    limits (-20.0 10.0)
           (0.0 20.0)
  end
  begin
     id 18 
     name lhumerus
     direction 1 -4.48968e-011 -3.06644e-027   
     length 5.14507   
     axis 180 -30 -90   XYZ
    dof rx ry rz
    limits (-60.0 90.0)
           (-90.0 90.0)
           (-90.0 90.0)
  end
  begin
     id 19
     name lradius
     direction 1 -4.48965e-011 9.06925e-028   
     length 3.50646   
     axis 180 -30 -90   XYZ
    dof rx
    limits (-10.0 170.0)
  end
  begin
     id 20
     name lwrist
     direction 1 -4.48957e-011 1.03922e-027   
     length 1.75323   
     axis -2.56395e-016 90 90   XYZ
    dof ry
    limits (-180.0 0.0)
 end
  begin
     id 21 
     name lhand
     direction 1 -4.48967e-011 2.08017e-027   
     length 0.629969   
     axis -1.32723e-015 90 90   XYZ
    dof rx rz
    limits (-90.0 90.0)
           (-45.0 45.0)
  end
  begin
     id 22 
     name lfingers
     direction 1 -4.49089e-011 4.20095e-027   
     length 0.507897   
     axis -2.6545e-015 90 90   XYZ
    dof rx
    limits (0.0 90.0)
  end
  begin
     id 23
     name lthumb
     direction 0.707107 -6.35001e-011 0.707107   
     length 0.729241   
     axis -90 45 5.05613e-014   XYZ
    dof rx rz
    limits (-45.0 45.0)
           (-45.0 45.0)
  end
  begin
     id 24 
     name rclavicle
     direction -0.881882 0.464123 -0.0829113   
     length 3.47515  
     axis 0 0 0   XYZ 
    dof ry rz
    limits (-10.0 20.0)
           (-20.0 0.0)
  end
  begin
     id 25 
     name rhumerus
     direction -1 -4.48961e-011 -1.55672e-027  
     length 5.232   
     axis 180 30 90   XYZ
    dof rx ry rz
    limits (-90.0 60.0)
           (-90.0 90.0)
           (-90.0 90.0)
  end
  begin
     id 26 
     name rradius
     direction -1 -4.48963e-011 6.18178e-029   
     length 3.65641   
     axis 180 30 90   XYZ
    dof rx
    limits (-10.0 170.0)
  end
  begin
     id 27 
     name rwrist
     direction -1 -4.48982e-011 1.04136e-027   
     length 1.8282   
     axis -2.56395e-016 -90 -90   XYZ
    dof ry
    limits (-180.0 0.0)
  end
  begin
     id 28
     name rhand
     direction -1 -4.48929e-011 2.07378e-027   
     length 0.656807   
     axis -1.32723e-015 -90 -90   XYZ
    dof rx rz
    limits (-90.0 90.0)
           (-45.0 45.0)
  end
  begin
     id 29
     name rfingers
     direction -1 -4.489e-011 4.13816e-027   
     length 0.529535   
     axis -2.6545e-015 -90 -90   XYZ
    dof rx
    limits (0.0 90.0)
  end
  begin
     id 30
     name rthumb
     direction -0.707107 -6.34843e-011 0.707107   
     length 0.760309   
     axis -90 -45 -5.05613e-014   XYZ
    dof rx rz
    limits (-45.0 45.0)
           (-45.0 45.0)
  end
:hierarchy
  begin
    root lhipjoint rhipjoint lowerback
    lhipjoint lfemur
    lfemur ltibia
    ltibia lfoot
    lfoot ltoes
    rhipjoint rfemur
    rfemur rtibia
    rtibia rfoot
    rfoot rtoes
    lowerback upperback
    upperback thorax
    thorax lowerneck lclavicle rclavicle
    lowerneck upperneck
    upperneck head
    lclavicle lhumerus
    lhumerus lradius
    lradius lwrist
    lwrist lhand lthumb
    lhand lfingers
    rclavicle rhumerus
    rhumerus rradius
    rradius rwrist
    rwrist rhand rthumb
    rhand rfingers
  end

#!OML:ASF H:\ManfredETheater\Project 1\Capture day 1\Session 1\subject.ASF
:FULLY-SPECIFIED
:DEGREES
1
root 17.3548 15.1538 40.4306 -149.87 -22.8288 175.516
lowerback 15.5756 -3.54491 -0.158004
upperback -0.549146 -4.54421 3.21848
thorax -9.05796 -2.13173 4.61724
lowerneck -14.5373 2.58327 -1.46814
upperneck -5.21095 2.92478 -1.41277
head 0.773396 1.13196 -0.0572417
rclavicle 1.90833e-014 2.26615e-014
rhumerus -79.4393 6.49039 -79.6225
rradius 70.6648
rwrist -8.73682
rhand -29.0075 6.19413
rfingers 7.12502
rthumb -2.35897 -23.7726
lclavicle 1.90833e-014 2.26615e-014
lhumerus -33.7037 -30.8756 101.695
lradius 128.329
lwrist -1.56471
lhand -25.0358 -10.4212
lfingers 7.12502
lthumb 1.47702 19.5534
rfemur -73.8131 -9.793 27.6823
rtibia 70.8659
rfoot -19.3508 -10.3518
rtoes -35.0952
lfemur -4.99513 -9.64987 -25.381
ltibia 40.4044
lfoot 27.1245 -4.83598
ltoes -7.45884
2
root 17.2366 15.1804 40.1341 -149.832 -22.4039 175.562
lowerback 15.8954 -3.30777 -0.0925249
upperback -0.103249 -4.24477 3.23808
thorax -8.77564 -2.01164 4.5343
lowerneck -14.6602 2.58771 -1.51927
upperneck -6.27241 2.80371 -1.68716
head 0.451416 1.02461 -0.146264
rclavicle 2.22639e-014 -4.33351e-014
rhumerus -77.0046 5.6012 -79.0912
rradius 69.257
rwrist -9.82301
rhand -29.4761 4.9331
rfingers 7.12502
rthumb -2.81151 -25.0281
lclavicle 2.22639e-014 -4.33351e-014
lhumerus -34.7398 -30.7411 102.374
lradius 126.3
lwrist -0.568912
lhand -24.3726 -9.78672
lfingers 7.12502
lthumb 2.11747 20.1825
rfemur -72.7802 -9.60095 27.5428
rtibia 71.2818
rfoot -19.8776 -11.3224
rtoes -35.6068
lfemur -6.39058 -8.91384 -25.4381
ltibia 43.5024
lfoot 22.7767 -4.11849
ltoes -13.2452
3
root 17.1195 15.2099 39.8375 -149.922 -21.963 175.918
lowerback 16.3897 -3.05946 0.228467
upperback 0.26976 -3.88016 3.29518
thorax -8.68936 -1.86582 4.35087
lowerneck -14.7446 2.60844 -1.57815
upperneck -7.32694 2.69477 -1.97698
head 0.127609 0.922625 -0.236941
rclavicle 6.36111e-015 -1.15295e-014
rhumerus -74.5092 4.75637 -78.7043
rradius 67.8329
rwrist -11.0871
rhand -29.8557 3.44322
rfingers 7.12502
rthumb -3.1781 -26.5128
lclavicle 6.36111e-015 -1.15295e-014
lhumerus -35.8824 -30.2855 103.022
lradius 124.08
lwrist 0.575558
lhand -23.9253 -9.14338
lfingers 7.12502
lthumb 2.54953 20.8211
rfemur -71.6115 -9.16495 27.5523
rtibia 71.5213
rfoot -19.9591 -11.6726
rtoes -34.7534
lfemur -8.17952 -8.04976 -25.1962
ltibia 47.2044
lfoot 18.6621 -3.64128
ltoes -6.97555
4
root 16.998 15.2422 39.5393 -150.168 -21.6493 176.518
lowerback 17.0023 -2.87361 0.865932
upperback 0.591321 -3.53369 3.39011
thorax -8.73618 -1.7392 4.04218
lowerneck -14.6432 2.65437 -1.62913
upperneck -8.38812 2.61516 -2.25683
head -0.225181 0.840815 -0.324778
rclavicle -1.19271e-014 -2.26615e-014
rhumerus -71.9991 3.96886 -78.4436
rradius 66.4341
rwrist -12.3136
rhand -30.3121 2.50271
rfingers 7.12502
rthumb -3.61888 -27.4463
lclavicle -1.19271e-014 -2.26615e-014
lhumerus -36.9816 -29.4433 103.497
lradius 121.562
lwrist 1.73404
lhand -23.5039 -8.82998
lfingers 7.12502
lthumb 2.95645 21.1293
rfemur -70.2732 -8.73063 27.7289
rtibia 71.7181
rfoot -20.1053 -11.9542
rtoes -34.7767
lfemur -9.99935 -7.35124 -24.6999
ltibia 50.8336
lfoot 16.0672 -3.59252
ltoes -9.76769
5
root 16.8768 15.2945 39.2195 -150.557 -21.7235 177.524
lowerback 17.5396 -2.753 1.81969
upperback 0.807494 -3.19417 3.69626
thorax -8.85276 -1.62602 3.78268
lowerneck -14.4517 2.68294 -1.74509
upperneck -9.17102 2.55596 -2.53877
head -0.501556 0.785889 -0.400437
rclavicle 6.71892e-014 -3.73715e-014
rhumerus -69.1671 3.22128 -78.2912
rradius 64.8512
rwrist -12.0869
rhand -30.7538 2.7393
rfingers 7.12502
rthumb -4.04544 -27.202
lclavicle 6.71892e-014 -3.73715e-014
lhumerus -37.6207 -27.9752 103.825
lradius 117.766
lwrist 2.76914
lhand -24.1487 -8.69436
lfingers 7.12502
lthumb 2.33374 21.2726
rfemur -68.508 -8.19576 28.1119
rtibia 71.6986
rfoot -21.0926 -11.8571
rtoes -36.6325
lfemur -12.6272 -6.33516 -23.3977
ltibia 54.8276
lfoot 15.8157 -3.85167
ltoes -8.08567
6
root 16.7594 15.3206 38.9132 -150.794 -21.6414 178.202
lowerback 18.0505 -2.60162 2.48896
upperback 1.0557 -2.87351 3.88763
thorax -8.90145 -1.51318 3.55612
lowerneck -14.3299 2.69371 -1.85134
upperneck -10.0102 2.45379 -2.77837
head -0.784491 0.704908 -0.465809
rclavicle -1.15295e-014 -1.03368e-014
rhumerus -66.4829 2.41483 -78.1258
rradius 63.3303
rwrist -12.3286
rhand -31.2216 2.41442
rfingers 7.12502
rthumb -4.49707 -27.5178
lclavicle -1.15295e-014 -1.03368e-014
lhumerus -38.2878 -26.7268 104.082
lradius 114.497
lwrist 3.93027
lhand -24.1327 -8.48655
lfingers 7.12502
lthumb 2.34919 21.4803
rfemur -67.0164 -7.76674 28.3369
rtibia 71.7171
rfoot -21.6198 -12.0069
rtoes -37.4942
lfemur -14.9777 -5.50982 -22.5701
ltibia 58.8198
lfoot 13.7491 -3.6491
ltoes -7.41569
7
root 16.6438 15.3417 38.6052 -151.036 -21.6384 178.901
lowerback 18.5433 -2.46029 3.17548
upperback 1.25988 -2.55541 4.09886
thorax -8.98112 -1.40196 3.3403
lowerneck -14.1788 2.67928 -1.98153
upperneck -10.7512 2.33278 -2.97981
head -1.04264 0.621451 -0.516047
rclavicle -1.63003e-014 2.34566e-014
rhumerus -63.7377 1.62977 -78.053
rradius 61.7856
rwrist -12.3629
rhand -31.6874 2.28062
rfingers 7.12502
rthumb -4.94691 -27.6416
lclavicle -1.63003e-014 2.34566e-014
lhumerus -38.7883 -25.2897 104.218
lradius 110.875
lwrist 5.03275
lhand -24.2576 -8.39277
lfingers 7.12502
lthumb 2.2286 21.5753
rfemur -65.4819 -7.35461 28.5908
rtibia 71.6766
rfoot -22.1903 -12.1033
rtoes -38.4581
lfemur -17.5374 -4.68922 -21.6512
ltibia 62.9126
lfoot 11.8998 -3.42825
ltoes -6.26158
